<?xml version="1.0" encoding="iso-8859-1"?>
<!-- Generator: Adobe Illustrator 19.0.0, SVG Export Plug-In . SVG Version: 6.00 Build 0)  -->
<svg version="1.1" id="Layer_1" xmlns="http://www.w3.org/2000/svg" xmlns:xlink="http://www.w3.org/1999/xlink" x="0px" y="0px"
	 viewBox="0 0 511.999 511.999" style="enable-background:new 0 0 511.999 511.999;" xml:space="preserve">
<path style="fill:#E09B2D;" d="M502.744,171.09H9.256v245.57h122.341c26.502,40.584,72.316,67.41,124.403,67.41
	s97.902-26.827,124.403-67.41h122.341V171.09z"/>
<path style="fill:#F7B239;" d="M256,461.854c-42.805,0-82.357-21.436-105.803-57.341l-6.576-10.068H31.471V193.304h449.059v201.141
	h-112.15l-6.576,10.068C338.357,440.418,298.804,461.854,256,461.854z"/>
<g>
	<path style="fill:#995C0D;" d="M256,429.669c-5.112,0-9.256,4.144-9.256,9.256v9.714c0,5.112,4.144,9.256,9.256,9.256
		c5.112,0,9.256-4.144,9.256-9.256v-9.714C265.256,433.813,261.112,429.669,256,429.669z"/>
	<path style="fill:#995C0D;" d="M256,379.992c-5.112,0-9.256,4.144-9.256,9.256v9.713c0,5.112,4.144,9.256,9.256,9.256
		c5.112,0,9.256-4.144,9.256-9.256v-9.713C265.256,384.136,261.112,379.992,256,379.992z"/>
	<path style="fill:#995C0D;" d="M236.018,409.687h-9.713c-5.112,0-9.256,4.144-9.256,9.256c0,5.112,4.144,9.256,9.256,9.256h9.713
		c5.112,0,9.256-4.144,9.256-9.256C245.274,413.831,241.13,409.687,236.018,409.687z"/>
	<path style="fill:#995C0D;" d="M285.695,409.687h-9.713c-5.112,0-9.256,4.144-9.256,9.256c0,5.112,4.144,9.256,9.256,9.256h9.713
		c5.112,0,9.256-4.144,9.256-9.256C294.951,413.831,290.807,409.687,285.695,409.687z"/>
	<path style="fill:#995C0D;" d="M186.819,286.269c2.272-4.074,3.572-8.761,3.572-13.747c0-15.619-12.708-28.327-28.327-28.327
		H115.89c-5.112,0-9.256,4.144-9.256,9.256s4.144,9.256,9.256,9.256h1.785v68.48h-1.785c-5.112,0-9.256,4.144-9.256,9.256
		s4.144,9.256,9.256,9.256h55.16c18.571,0,33.681-15.11,33.681-33.681C204.731,303.142,197.464,291.935,186.819,286.269z
		 M162.063,262.706c5.412,0,9.815,4.403,9.815,9.815s-4.403,9.815-9.815,9.815h-0.214h-25.663v-19.63H162.063z M171.05,331.188
		h-34.863V300.85h34.863c8.364,0,15.169,6.805,15.169,15.169C186.219,324.383,179.414,331.188,171.05,331.188z"/>
	<path style="fill:#995C0D;" d="M399.813,331.188h-1.119c-0.304-13.039-5.613-24.856-14.087-33.602
		c8.998-4.75,15.148-14.2,15.148-25.063c0-15.619-12.708-28.327-28.327-28.327h-46.173c-5.112,0-9.256,4.144-9.256,9.256
		s4.144,9.256,9.256,9.256h1.785v68.48h-1.785c-5.112,0-9.256,4.144-9.256,9.256c0,5.112,4.144,9.256,9.256,9.256h22.083
		c5.112,0,9.256-4.144,9.256-9.256c0-5.112-4.144-9.256-9.256-9.256h-1.786V300.85h3.146c16.982,0,30.862,13.505,31.484,30.338
		h-2.451c-5.112,0-9.256,4.144-9.256,9.256c0,5.112,4.144,9.256,9.256,9.256h22.083c5.112,0,9.256-4.144,9.256-9.256
		C409.069,335.332,404.924,331.188,399.813,331.188z M345.551,282.338v-19.63h25.876c5.412,0,9.815,4.403,9.815,9.815
		c0,5.412-4.403,9.815-9.815,9.815H345.551z"/>
	<path style="fill:#995C0D;" d="M292.675,331.188h-1.528l-24.756-80.459c-1.195-3.884-4.784-6.534-8.846-6.534
		c-4.063,0-7.652,2.65-8.846,6.534l-24.757,80.459h-1.528c-5.112,0-9.256,4.144-9.256,9.256c0,5.112,4.144,9.256,9.256,9.256h8.335
		c0.011,0,0.022,0.003,0.032,0.003c0.01,0,0.02-0.003,0.03-0.003h13.685c5.112,0,9.256-4.144,9.256-9.256
		c0-5.112-4.144-9.256-9.256-9.256h-1.186l2.583-8.397h23.302l2.583,8.397h-1.186c-5.112,0-9.256,4.144-9.256,9.256
		c0,5.112,4.144,9.256,9.256,9.256h13.634c0.037,0,0.075,0,0.112,0h8.337c5.112,0,9.256-4.144,9.256-9.256
		C301.931,335.332,297.788,331.188,292.675,331.188z M251.589,304.279l5.955-19.354l5.955,19.354H251.589z"/>
</g>
<path d="M502.744,161.833h-93.71V37.185h21.598c5.112,0,9.256-4.144,9.256-9.256s-4.144-9.256-9.256-9.256h-61.707
	c-5.112,0-9.256,4.144-9.256,9.256s4.144,9.256,9.256,9.256h21.598v124.649H121.478V37.185h21.598c5.112,0,9.256-4.144,9.256-9.256
	s-4.144-9.256-9.256-9.256H81.368c-5.112,0-9.256,4.144-9.256,9.256s4.144,9.256,9.256,9.256h21.598v124.649H9.256
	c-5.112,0-9.256,4.144-9.256,9.256v245.57c0,5.112,4.144,9.256,9.256,9.256H126.68c29.57,42.304,77.538,67.41,129.319,67.41
	c51.782,0,99.75-25.105,129.32-67.41h117.424c5.112,0,9.256-4.144,9.256-9.256V171.09C512,165.978,507.856,161.833,502.744,161.833z
	 M493.488,407.404H380.404c-3.126,0-6.041,1.577-7.75,4.195c-25.848,39.583-69.456,63.214-116.654,63.214
	s-90.806-23.631-116.653-63.214c-1.709-2.618-4.624-4.195-7.75-4.195H18.512V180.346h84.454v15.453c0,5.112,4.144,9.256,9.256,9.256
	c5.112,0,9.256-4.144,9.256-9.256v-15.453h269.044v15.453c0,5.112,4.144,9.256,9.256,9.256c5.112,0,9.256-4.144,9.256-9.256v-15.453
	h84.454V407.404z"/>
<g>
	<path style="fill:#995C0D;" d="M431.866,306.846h35.79c5.112,0,9.256-4.144,9.256-9.256s-4.144-9.256-9.256-9.256h-35.79
		c-5.112,0-9.256,4.144-9.256,9.256S426.754,306.846,431.866,306.846z"/>
	<path style="fill:#995C0D;" d="M80.134,288.333h-35.79c-5.112,0-9.256,4.144-9.256,9.256s4.144,9.256,9.256,9.256h35.79
		c5.112,0,9.256-4.144,9.256-9.256S85.246,288.333,80.134,288.333z"/>
	<path style="fill:#995C0D;" d="M431.866,337.082h14.217c5.112,0,9.256-4.144,9.256-9.256c0-5.112-4.144-9.256-9.256-9.256h-14.217
		c-5.112,0-9.256,4.144-9.256,9.256C422.61,332.938,426.754,337.082,431.866,337.082z"/>
	<path style="fill:#995C0D;" d="M80.134,318.57H65.917c-5.112,0-9.256,4.144-9.256,9.256c0,5.112,4.144,9.256,9.256,9.256h14.217
		c5.112,0,9.256-4.144,9.256-9.256C89.39,322.714,85.246,318.57,80.134,318.57z"/>
	<path style="fill:#995C0D;" d="M431.866,276.609h14.217c5.112,0,9.256-4.144,9.256-9.256c0-5.112-4.144-9.256-9.256-9.256h-14.217
		c-5.112,0-9.256,4.144-9.256,9.256C422.61,272.465,426.754,276.609,431.866,276.609z"/>
	<path style="fill:#995C0D;" d="M80.134,258.097H65.917c-5.112,0-9.256,4.144-9.256,9.256c0,5.112,4.144,9.256,9.256,9.256h14.217
		c5.112,0,9.256-4.144,9.256-9.256C89.39,262.241,85.246,258.097,80.134,258.097z"/>
</g>
<g>
</g>
<g>
</g>
<g>
</g>
<g>
</g>
<g>
</g>
<g>
</g>
<g>
</g>
<g>
</g>
<g>
</g>
<g>
</g>
<g>
</g>
<g>
</g>
<g>
</g>
<g>
</g>
<g>
</g>
</svg>
